<svg version="1.1" viewBox="0.0 0.0 315.9265091863517 208.0498687664042" fill="none" stroke="none" stroke-linecap="square" stroke-miterlimit="10" xmlns:xlink="http://www.w3.org/1999/xlink" xmlns="http://www.w3.org/2000/svg"><clipPath id="p.0"><path d="m0 0l315.9265 0l0 208.04987l-315.9265 0l0 -208.04987z" clip-rule="nonzero"/></clipPath><g clip-path="url(#p.0)"><path fill="#000000" fill-opacity="0.0" d="m0 0l315.9265 0l0 208.04987l-315.9265 0z" fill-rule="evenodd"/><path fill="#ffffff" d="m57.295906 65.8206c3.4485664 0 5.7056313 1.0272675 6.771202 3.0818024c1.084938 2.0324402 1.6274109 4.3299866 1.6274109 6.892639l0 10.802887c0 2.5847397 -0.54247284 4.8933334 -1.6274109 6.9257736c-1.0655708 2.0324402 -3.3226357 3.048668 -6.771202 3.048668l-16.070698 0l0 -30.75177zm-49.810444 -38.075195c-2.2667532 0 -3.903854 0.58543015 -4.9112988 1.7562962c-1.0074446 1.1487713 -1.5111687 3.0155296 -1.5111687 5.6002693l0 131.9211c0 2.5847473 0.5037241 4.4515076 1.5111687 5.600281c1.0074446 1.1487579 2.6445453 1.7231598 4.9112988 1.7231598l27.666014 0c2.2667503 0 3.9038506 -0.57440186 4.911297 -1.7231598c1.0268211 -1.1487732 1.5402298 -3.0155334 1.5402298 -5.600281l0 -33.80043l20.517021 0c16.196629 0 27.268848 -3.667221 33.216656 -11.001709c5.9477997 -7.3344727 8.921707 -16.900223 8.921707 -28.697227l0 -26.079353c0 -11.797016 -2.9739075 -21.362759 -8.921707 -28.697235c-5.9478073 -7.3344727 -17.020027 -11.001707 -33.216656 -11.001707z" fill-rule="evenodd"/><path fill="#ff9900" d="m169.88417 165.90814l98.57796 0l0 0c12.913971 0 23.382843 7.8164673 23.382843 17.458572c0 9.64212 -10.468872 17.458588 -23.382843 17.458588l-98.57796 0l0 0c-12.913986 0 -23.382828 -7.8164673 -23.382828 -17.458588c0 -9.642105 10.468842 -17.458572 23.382828 -17.458572z" fill-rule="evenodd"/><path fill="#ff9900" d="m135.95038 19.01616c-1.7227478 0 -2.9743347 0.40429688 -3.7547302 1.2128925c-0.7656708 0.79333687 -1.1484985 2.082512 -1.1484985 3.8675232l0 17.003374c0 1.7850113 0.38282776 3.0741844 1.1484985 3.8675232c0.7803955 0.7933388 2.0319824 1.1900063 3.7547302 1.1900063l37.1718 0l0 12.65527l-10.99913 3.0894432c-3.607483 1.1289787 -6.7511444 2.372383 -9.431 3.730217c-2.6651154 1.3578262 -4.8590546 3.0665588 -6.5818176 5.1261826c-1.7080231 2.0596313 -2.9964142 4.6379776 -3.865158 7.7350464c-0.85401917 3.0970764 -1.2810211 6.850174 -1.2810211 11.2593l0 25.447853c0 1.7850113 0.38282776 3.0741882 1.1484985 3.8675232c0.7656708 0.79333496 2.0098877 1.1900024 3.7326508 1.1900024l21.976196 0c1.7227478 0 2.9669647 -0.39666748 3.7326355 -1.1900024c0.7803955 -0.79333496 1.1705933 -2.082512 1.1705933 -3.8675232l0 -24.601112l10.0273285 -3.1123276c3.6222076 -1.1137238 6.765869 -2.3495026 9.431 -3.7073288c2.67984 -1.3578339 4.8737793 -3.0665588 6.5818176 -5.12619c1.7227478 -2.0748825 3.011139 -4.6532364 3.865158 -7.7350464c0.86872864 -3.0970688 1.3031006 -6.8501663 1.3031006 -11.2593l0 -35.562912c0 -1.7850113 -0.39019775 -3.0741863 -1.170578 -3.8675232c-0.7656708 -0.80859566 -2.002533 -1.2128925 -3.710556 -1.2128925z" fill-rule="evenodd"/><path fill="#ff9900" d="m257.389 42.35861c3.8872375 0 6.3756714 0.49583817 7.465271 1.4875107c1.0895996 0.97641754 1.6344299 2.219822 1.6344299 3.730217l0 8.284279c0 1.4035988 -0.5448303 2.6012306 -1.6344299 3.592907c-1.0895996 0.97641754 -3.5780334 1.4646263 -7.465271 1.4646263c-4.0639496 0 -6.6407166 -0.48820877 -7.7303314 -1.4646263c-1.0895996 -0.9916687 -1.6343994 -2.1893044 -1.6343994 -3.592907l0 -8.284279c0 -1.510395 0.5447998 -2.7537994 1.6343994 -3.730217c1.0896149 -0.9916725 3.6663818 -1.4875107 7.7303314 -1.4875107zm-0.94973755 -25.447847c-7.7744904 0 -14.194336 0.6789131 -19.259537 2.0367432c-5.065201 1.35783 -9.070236 3.2801495 -12.015121 5.766958c-2.9448853 2.4868107 -4.9842224 5.4694576 -6.117996 8.947941c-1.1190643 3.4632225 -1.6785889 7.3460045 -1.6785889 11.648342l0 13.502003c0 8.34531 2.2601929 14.653881 6.780594 18.925694c4.520401 4.256569 12.891235 6.3848495 25.112503 6.3848495c3.607483 0 6.832138 -0.18308258 9.673935 -0.5492325c2.8565369 -0.3814087 5.37442 -0.9001312 7.55365 -1.5561676l0 3.089447c0 3.4632263 -0.58898926 5.73645 -1.7669373 6.8196564c-1.177948 1.0832138 -3.4381409 1.6248169 -6.780609 1.6248169l-25.377533 0c-1.7227631 0 -2.9669647 0.39666748 -3.7326355 1.1900024c-0.7656708 0.79333496 -1.1485138 2.0825195 -1.1485138 3.8675232l0 16.591454c0 1.7850113 0.38284302 3.0741882 1.1485138 3.8675232c0.7656708 0.79333496 2.0098724 1.1900024 3.7326355 1.1900024l31.208405 0c12.751343 0 21.49765 -2.6698837 26.238922 -8.009659c4.7559814 -5.3397827 7.133972 -12.281494 7.133972 -20.825127l0 -46.112785c0 -4.3023376 -0.566864 -8.18512 -1.7006531 -11.648342c-1.1190491 -3.4784832 -3.1731262 -6.46113 -6.1621704 -8.947941c-2.9890747 -2.4868088 -7.133972 -4.409128 -12.434784 -5.766958c-5.286072 -1.35783 -12.088745 -2.0367432 -20.40805 -2.0367432z" fill-rule="evenodd"/></g></svg>